<svg width="24" height="24" viewBox="0 0 24 24" fill="none" xmlns="http://www.w3.org/2000/svg">
<path d="M17 20H22V18C21.9993 17.1137 21.7044 16.2528 21.1614 15.5523C20.6184 14.8519 19.8581 14.3516 19 14.13M9 20H4V18C4.00066 17.1137 4.29565 16.2528 4.83864 15.5523C5.38163 14.8519 6.14187 14.3516 7 14.13M16 3.13C16.8604 3.35031 17.623 3.85071 18.1676 4.55232C18.7122 5.25392 19.0078 6.11683 19.0078 7.005C19.0078 7.89318 18.7122 8.75608 18.1676 9.45769C17.623 10.1593 16.8604 10.6597 16 10.88M8 3.13C7.13959 3.35031 6.37696 3.85071 5.83236 4.55232C5.28776 5.25392 4.99216 6.11683 4.99216 7.005C4.99216 7.89318 5.28776 8.75608 5.83236 9.45769C6.37696 10.1593 7.13959 10.6597 8 10.88" stroke="#22C55E" stroke-width="2" stroke-linecap="round" stroke-linejoin="round"/>
</svg>
