<svg width="19" height="20" viewBox="0 0 19 20" fill="none" xmlns="http://www.w3.org/2000/svg">
<path d="M16.245 10C16.245 11.9145 15.4843 13.7507 14.1303 15.1044C12.7763 16.4582 10.9399 17.2188 9.02499 17.2188C7.11013 17.2188 5.27369 16.4582 3.91968 15.1044C2.56567 13.7507 1.80499 11.9145 1.80499 10C1.80499 8.08548 2.56567 6.24936 3.91968 4.89558C5.27369 3.5418 7.11013 2.78125 9.02499 2.78125C10.9399 2.78125 12.7763 3.5418 14.1303 4.89558C15.4843 6.24936 16.245 8.08548 16.245 10ZM7.85806 7.55736C7.68785 7.39299 7.45987 7.30204 7.22324 7.3041C6.98661 7.30615 6.76025 7.40105 6.59292 7.56835C6.42559 7.73566 6.33067 7.96198 6.32862 8.19857C6.32656 8.43516 6.41753 8.66309 6.58193 8.83328L8.65136 10.9024L6.58193 12.9714C6.49573 13.0547 6.42697 13.1542 6.37967 13.2643C6.33237 13.3744 6.30748 13.4928 6.30644 13.6126C6.3054 13.7325 6.32823 13.8513 6.37361 13.9622C6.41899 14.0731 6.486 14.1738 6.57074 14.2585C6.65548 14.3433 6.75624 14.4103 6.86716 14.4556C6.97807 14.501 7.09691 14.5238 7.21674 14.5228C7.33658 14.5217 7.455 14.4969 7.56511 14.4496C7.67522 14.4023 7.77481 14.3335 7.85806 14.2473L10.5656 11.5403C10.7348 11.3711 10.8298 11.1416 10.8298 10.9024C10.8298 10.6631 10.7348 10.4336 10.5656 10.2644L7.85806 7.55736Z" fill="#3B82F6"/>
</svg>
