<svg width="96" height="96" viewBox="0 0 96 96" fill="none" xmlns="http://www.w3.org/2000/svg">
<path d="M48 90.6667C71.5642 90.6667 90.6667 71.5642 90.6667 48C90.6667 24.4359 71.5642 5.33334 48 5.33334C24.4358 5.33334 5.33333 24.4359 5.33333 48C5.33333 71.5642 24.4358 90.6667 48 90.6667Z" fill="#F3F4F6"/>
<path d="M48 5.33334C59.3159 5.33334 70.1683 9.82857 78.1699 17.8301C86.1714 25.8317 90.6667 36.6841 90.6667 48H48V5.33334Z" fill="#34D399"/>
<path d="M90.6667 48C91.2336 56.9569 88.9617 65.8645 84.1741 73.4556C79.3865 81.0468 72.3271 86.935 64 90.2827L48 48H90.6667Z" fill="#F59E42"/>
<path d="M64 90.2827C58.7386 91.4188 53.3098 91.5491 48 90.6667V48L64 90.2827Z" fill="#60A5FA"/>
</svg>
