<svg width="28" height="28" viewBox="0 0 28 28" fill="none" xmlns="http://www.w3.org/2000/svg">
<path d="M19.8334 23.3333H25.6667V21C25.6659 19.966 25.3218 18.9616 24.6883 18.1444C24.0548 17.3272 23.1678 16.7435 22.1667 16.485M10.5 23.3333H4.66669V21C4.66746 19.966 5.01161 18.9616 5.64509 18.1444C6.27858 17.3272 7.16554 16.7435 8.16669 16.485M18.6667 3.65167C19.6705 3.90869 20.5602 4.49249 21.1956 5.31103C21.831 6.12958 22.1758 7.13631 22.1758 8.17251C22.1758 9.2087 21.831 10.2154 21.1956 11.034C20.5602 11.8525 19.6705 12.4363 18.6667 12.6933M9.33335 3.65167C8.32954 3.90869 7.43981 4.49249 6.80444 5.31103C6.16907 6.12958 5.8242 7.13631 5.8242 8.17251C5.8242 9.2087 6.16907 10.2154 6.80444 11.034C7.43981 11.8525 8.32954 12.4363 9.33335 12.6933" stroke="#22C55E" stroke-width="2.33333" stroke-linecap="round" stroke-linejoin="round"/>
</svg>
